<svg xmlns="http://www.w3.org/2000/svg" xmlns:xlink="http://www.w3.org/1999/xlink" width="1080" zoomAndPan="magnify" viewBox="0 0 810 809.999993" height="1080" preserveAspectRatio="xMidYMid meet" version="1.0"><defs><g/></defs><path fill="#ff3131" d="M 582.746094 442.976562 C 440 546.625 263.089844 493.449219 182.753906 429.222656 C 177.894531 425.335938 170.863281 425.539062 166.464844 429.9375 C 162.070312 434.332031 161.835938 441.398438 166.109375 445.910156 C 244.203125 528.367188 404.785156 613.125 603.015625 472.976562 C 603.015625 472.976562 584.753906 505.582031 603.015625 511.503906 C 621.273438 517.421875 648.0625 432.339844 641.542969 416.1875 C 635.019531 400.035156 544.820312 421.40625 542.914062 437.757812 C 541.011719 454.113281 582.746094 442.976562 582.746094 442.976562 Z M 582.746094 442.976562 " fill-opacity="1" fill-rule="nonzero"/><g fill="#ffffff" fill-opacity="1"><g transform="translate(204.657726, 365.360948)"><g><path d="M 1.566406 0 L 17.414062 0 L 20.152344 -7.53125 L 43.335938 -7.53125 L 46.171875 0 L 61.921875 0 L 32.476562 -72.488281 L 31.011719 -72.488281 Z M 25.238281 -20.640625 L 31.792969 -38.835938 L 38.152344 -20.640625 Z M 25.238281 -20.640625 "/></g></g></g><g fill="#ffffff" fill-opacity="1"><g transform="translate(268.531788, 365.360948)"><g><path d="M 21.816406 -38.054688 L 57.226562 1.46875 L 60.945312 1.46875 L 60.945312 -69.847656 L 46.855469 -69.847656 L 46.855469 -30.324219 L 11.542969 -71.410156 L 7.824219 -71.410156 L 7.824219 0 L 21.816406 0 Z M 21.816406 -38.054688 "/></g></g></g><g fill="#ffffff" fill-opacity="1"><g transform="translate(337.394467, 365.360948)"><g><path d="M 1.566406 0 L 17.414062 0 L 20.152344 -7.53125 L 43.335938 -7.53125 L 46.171875 0 L 61.921875 0 L 32.476562 -72.488281 L 31.011719 -72.488281 Z M 25.238281 -20.640625 L 31.792969 -38.835938 L 38.152344 -20.640625 Z M 25.238281 -20.640625 "/></g></g></g><g fill="#ffffff" fill-opacity="1"><g transform="translate(401.268528, 365.360948)"><g><path d="M 49.007812 0 L 49.007812 -14.085938 L 22.988281 -14.085938 L 48.226562 -69.945312 L 5.871094 -69.945312 L 5.871094 -56.347656 L 27.390625 -56.347656 C 18.976562 -37.660156 10.566406 -18.78125 2.152344 0 Z M 49.007812 0 "/></g></g></g><g fill="#ffffff" fill-opacity="1"><g transform="translate(453.600261, 365.360948)"><g><path d="M 41.476562 0.976562 C 89.605469 0.976562 89.605469 -71.117188 41.476562 -71.117188 C -6.652344 -71.117188 -6.652344 0.976562 41.476562 0.976562 Z M 41.476562 -13.5 C 13.5 -13.5 13.5 -56.738281 41.476562 -56.738281 C 69.453125 -56.738281 69.453125 -13.5 41.476562 -13.5 Z M 41.476562 -13.5 "/></g></g></g><g fill="#ffffff" fill-opacity="1"><g transform="translate(536.450667, 365.360948)"><g><path d="M 21.816406 -38.054688 L 57.226562 1.46875 L 60.945312 1.46875 L 60.945312 -69.847656 L 46.855469 -69.847656 L 46.855469 -30.324219 L 11.542969 -71.410156 L 7.824219 -71.410156 L 7.824219 0 L 21.816406 0 Z M 21.816406 -38.054688 "/></g></g></g></svg>