<svg xmlns="http://www.w3.org/2000/svg" xmlns:xlink="http://www.w3.org/1999/xlink" width="2000" zoomAndPan="magnify" viewBox="0 0 1500 484.499986" height="646" preserveAspectRatio="xMidYMid meet" version="1.0"><defs><g/><clipPath id="135087e278"><path d="M 0.773438 0 L 1499.226562 0 L 1499.226562 484 L 0.773438 484 Z M 0.773438 0 " clip-rule="nonzero"/></clipPath></defs><g clip-path="url(#135087e278)"><path fill="#ffffff" d="M 0.773438 0 L 1499.226562 0 L 1499.226562 484 L 0.773438 484 Z M 0.773438 0 " fill-opacity="1" fill-rule="nonzero"/><path fill="#ffffff" d="M 0.773438 0 L 1499.226562 0 L 1499.226562 484 L 0.773438 484 Z M 0.773438 0 " fill-opacity="1" fill-rule="nonzero"/><rect x="-150" width="1800" fill="#1e1d1d" y="-48.449999" height="581.399983" fill-opacity="1"/></g><path fill="#ff5757" d="M 1281.367188 238.554688 C 1196.070312 300.492188 1090.359375 268.714844 1042.351562 230.339844 C 1039.449219 228.015625 1035.25 228.136719 1032.621094 230.765625 C 1029.996094 233.390625 1029.855469 237.613281 1032.410156 240.3125 C 1079.074219 289.582031 1175.027344 340.230469 1293.476562 256.484375 C 1293.476562 256.484375 1282.566406 275.96875 1293.476562 279.503906 C 1304.390625 283.042969 1320.398438 232.203125 1316.5 222.550781 C 1312.605469 212.898438 1258.707031 225.667969 1257.566406 235.4375 C 1256.429688 245.210938 1281.367188 238.554688 1281.367188 238.554688 Z M 1281.367188 238.554688 " fill-opacity="1" fill-rule="nonzero"/><g fill="#ffffff" fill-opacity="1"><g transform="translate(1055.441522, 192.178634)"><g><path d="M 0.933594 0 L 10.40625 0 L 12.042969 -4.5 L 25.894531 -4.5 L 27.589844 0 L 37 0 L 19.40625 -43.3125 L 18.53125 -43.3125 Z M 15.082031 -12.332031 L 18.996094 -23.207031 L 22.796875 -12.332031 Z M 15.082031 -12.332031 "/></g></g></g><g fill="#ffffff" fill-opacity="1"><g transform="translate(1093.608284, 192.178634)"><g><path d="M 13.035156 -22.738281 L 34.195312 0.875 L 36.414062 0.875 L 36.414062 -41.734375 L 28 -41.734375 L 28 -18.121094 L 6.898438 -42.671875 L 4.675781 -42.671875 L 4.675781 0 L 13.035156 0 Z M 13.035156 -22.738281 "/></g></g></g><g fill="#ffffff" fill-opacity="1"><g transform="translate(1134.755903, 192.178634)"><g><path d="M 0.933594 0 L 10.40625 0 L 12.042969 -4.5 L 25.894531 -4.5 L 27.589844 0 L 37 0 L 19.40625 -43.3125 L 18.53125 -43.3125 Z M 15.082031 -12.332031 L 18.996094 -23.207031 L 22.796875 -12.332031 Z M 15.082031 -12.332031 "/></g></g></g><g fill="#ffffff" fill-opacity="1"><g transform="translate(1172.922666, 192.178634)"><g><path d="M 29.285156 0 L 29.285156 -8.417969 L 13.738281 -8.417969 L 28.816406 -41.792969 L 3.507812 -41.792969 L 3.507812 -33.667969 L 16.367188 -33.667969 C 11.339844 -22.503906 6.3125 -11.222656 1.285156 0 Z M 29.285156 0 "/></g></g></g><g fill="#ffffff" fill-opacity="1"><g transform="translate(1204.192524, 192.178634)"><g><path d="M 24.785156 0.585938 C 53.542969 0.585938 53.542969 -42.496094 24.785156 -42.496094 C -3.976562 -42.496094 -3.976562 0.585938 24.785156 0.585938 Z M 24.785156 -8.066406 C 8.066406 -8.066406 8.066406 -33.902344 24.785156 -33.902344 C 41.5 -33.902344 41.5 -8.066406 24.785156 -8.066406 Z M 24.785156 -8.066406 "/></g></g></g><g fill="#ffffff" fill-opacity="1"><g transform="translate(1253.69825, 192.178634)"><g><path d="M 13.035156 -22.738281 L 34.195312 0.875 L 36.414062 0.875 L 36.414062 -41.734375 L 28 -41.734375 L 28 -18.121094 L 6.898438 -42.671875 L 4.675781 -42.671875 L 4.675781 0 L 13.035156 0 Z M 13.035156 -22.738281 "/></g></g></g></svg>